<svg fill="none" height="28" viewBox="0 0 160 32" xmlns="http://www.w3.org/2000/svg" xmlns:xlink="http://www.w3.org/1999/xlink"><clipPath id="a"><path d="m0 .533203h160v30.9333h-160z"/></clipPath><g clip-path="url(#a)"><path d="m20.8257 31.4028 20.3751-20.3764v13.0238l-7.3513 7.3526zm-.1224-30.552214-20.375175 20.375114v-13.02381l7.351305-7.351304z" fill="#59cfa8"/><path d="m41.2009 11.0267-.0103-10.176114h-10.1773l-10.1774 10.176114zm-40.872775 10.1989.011498 10.1773h10.176077l10.1773-10.1773z" fill="#00bbbe"/><path d="m31.0127 21.2139v-10.1875h10.1876zm-20.497-10.1758v10.1876h-10.187575zm91.1883 1.4592c.076-.7359.338-3.11729.338-3.11729-1.201-.47655-2.4923-.71546-3.7584-.71546-1.3964 0-2.7609.28874-3.9337.86749-2.361 1.16386-3.769 3.63346-3.7664 6.60776-.0026 2.9755 1.4041 5.4451 3.7664 6.609 2.2345 1.1 5.1666 1.1549 7.6911.152 0 0-.262-2.3814-.339-3.1173-1.608.4331-3.0671.7103-4.5095.1431-1.4628-.5749-2.2741-1.919-2.2856-3.7855.0115-1.8692.8228-3.2132 2.2856-3.7881 1.4424-.566 2.9015-.2888 4.5095.1431zm19.027-6.64348v17.31278h4.393v-18.52012zm-3.307 3.23232h-3.717l-4.967 6.10056v-10.54022l-4.392 1.20861v17.31151h4.392v-3.4163l1.722-2.1145 3.778 5.5308h4.702l-5.925-8.6698zm37.551 14.08046h4.701l-5.923-8.6698 4.406-5.41066h-3.717l-4.968 6.09926v-10.53892l-4.392 1.20861v17.31151h4.392v-3.4163l1.723-2.1145zm-19.785-14.54648c-3.063 0-4.885 1.17922-5.874 2.16938-1.18 1.183-1.856 2.7851-1.855 4.3962v1.8934c-.001 1.6123.675 3.2144 1.855 4.3962.989.9902 2.811 2.1694 5.874 2.1694 3.062 0 4.883-1.1792 5.87-2.1694 1.181-1.183 1.858-2.7839 1.855-4.3962v-1.8934c.002-1.6123-.674-3.2144-1.855-4.3962-.987-.99016-2.809-2.16938-5.87-2.16938zm2.173 11.13168c-.542.543-1.273.8177-2.173.8177-.901 0-1.633-.276-2.175-.8189-.74-.7411-1.111-1.9586-1.108-3.6195-.003-1.6596.37-2.8771 1.108-3.6181.542-.543 1.274-.819 2.175-.819.9 0 1.631.276 2.173.8177.74.741 1.111 1.9585 1.107 3.6194.004 1.6596-.369 2.8784-1.107 3.6182zm-64.433-10.66694h-4.0181v-4.43838l-4.3924 1.20861v12.27391c0 2.6766 1.2661 4.6223 3.3857 5.2049 1.5063.414 3.1697.3769 5.0248-.0971v-3.0624c-.5788.1201-1.1882.1776-1.8947.1623-1.0706-.0281-2.0825-1.0962-2.0825-2.2001l-.0422-6.2129h4.0194zm-11.3197 7.21084c-1.5651-1.6775-4.5304-1.5178-6.5848-2.2128-.649-.2197-1.4654-.7793-1.0284-1.5625.3206-.5749 1.0795-.7027 1.68-.7461 2.1349-.1559 4.1816.3539 6.0073.8394l.3168-2.88993c-3.3562-1.07319-8.8652-2.09399-11.5546.95433-1.321 1.4974-1.3504 3.9235-.0639 5.2982 1.5664 1.6737 4.5304 1.5153 6.5822 2.2103.5583.1891 1.2227.5583 1.1409 1.2444-.0971.824-1.1166 1.0144-1.7924 1.0642-2.1336.1584-4.1804-.3526-6.0073-.8394l-.3169 2.8899c3.3576 1.0745 8.864 2.0953 11.5546-.9543 1.3198-1.4961 1.3517-3.9184.0678-5.2944zm26.76-3.0585c0-.934-.3654-1.887-1.003-2.6166-1.1319-1.29544-3.0598-1.95979-5.7287-1.9764-1.7031-.00894-3.7983.35773-5.8259 1.01314l.3169 2.91936c1.5957-.4293 3.3601-.8765 5.2049-.8765.7921 0 1.9662.0435 2.4849.7576.5469.7525-.396 1.3862-1.0323 1.6034-1.5229.5213-3.1339.764-4.6938 1.1524-1.8628.4638-3.2886 2.4249-3.2503 4.4652.0218 1.1575.5379 2.255 1.3798 2.9372 2.1324 1.7261 5.8412 1.123 7.9608-1.0067l.2849 1.5561h3.9337l-.0319-9.9295zm-4.1931 6.1861c-1.1192 1.0157-2.5782 1.4756-4.0628 1.1332-.7934-.1827-1.2865-.9786-1.146-1.8525.1942-1.2188 1.5063-1.5587 2.1362-1.7222l3.079-.7742z" fill="#002a3e"/></g></svg>